<mxfile host="app.diagrams.net" modified="2023-09-07T04:47:55.190Z" agent="Mozilla/5.0 (X11; Ubuntu; Linux x86_64; rv:109.0) Gecko/20100101 Firefox/117.0" version="21.7.2" etag="xx0-PA679Be3pK-jRPF-" type="github">
  <diagram name="Page-1" id="2cqN4YW5OGlS4V_-lqoN">
    <mxGraphModel>
      <root>
        <mxCell id="0" />
        <mxCell id="1" parent="0" />
      </root>
    </mxGraphModel>
  </diagram>
</mxfile>
